<?xml version="1.0" standalone="no"?>
<!DOCTYPE svg PUBLIC "-//W3C//DTD SVG 20010904//EN"
 "http://www.w3.org/TR/2001/REC-SVG-20010904/DTD/svg10.dtd">
<svg version="1.0" xmlns="http://www.w3.org/2000/svg"
 width="960.000000pt" height="960.000000pt" viewBox="0 0 960.000000 960.000000"
 preserveAspectRatio="xMidYMid meet">
<metadata>
Created by potrace 1.11, written by Peter Selinger 2001-2013
</metadata>
<g transform="translate(0.000000,960.000000) scale(0.100000,-0.100000)"
fill="#000000" stroke="none">
<path d="M6228 8745 c-2 -2 -57 -6 -123 -9 -66 -4 -139 -9 -162 -11 -24 -3
-62 -7 -85 -10 -161 -17 -176 -19 -302 -39 -54 -9 -113 -18 -130 -21 -28 -4
-333 -68 -381 -80 -11 -3 -29 -7 -40 -10 -11 -2 -47 -12 -80 -21 -33 -9 -67
-17 -76 -19 -60 -12 -474 -146 -614 -199 -125 -47 -196 -75 -220 -86 -11 -5
-65 -28 -120 -51 -138 -57 -344 -155 -495 -234 -30 -16 -61 -30 -69 -31 -8 -2
-17 -7 -20 -11 -3 -5 -51 -33 -106 -63 -55 -29 -128 -71 -163 -92 -34 -21 -67
-38 -72 -38 -6 0 -10 -4 -10 -10 0 -5 -5 -10 -10 -10 -6 0 -38 -18 -71 -40
-33 -22 -62 -40 -65 -40 -12 0 -476 -320 -538 -371 -6 -5 -36 -28 -66 -51 -30
-24 -57 -45 -60 -48 -3 -3 -39 -32 -80 -65 -66 -52 -105 -85 -144 -120 -6 -5
-29 -25 -51 -44 -304 -257 -675 -654 -929 -991 -47 -63 -89 -119 -94 -125 -14
-17 -186 -278 -212 -320 -77 -127 -100 -168 -100 -176 0 -5 -4 -9 -10 -9 -5 0
-9 -3 -8 -7 1 -5 -14 -37 -34 -73 -20 -36 -42 -76 -47 -90 -6 -14 -15 -32 -21
-40 -12 -19 -80 -166 -115 -250 -15 -36 -33 -78 -40 -95 -17 -39 -100 -276
-112 -320 -1 -5 -16 -59 -33 -120 -17 -60 -32 -119 -35 -130 -2 -11 -6 -31
-10 -45 -3 -14 -7 -39 -9 -57 -3 -18 -7 -36 -9 -40 -3 -4 -8 -30 -11 -58 -4
-27 -11 -77 -16 -110 -30 -193 -33 -567 -6 -750 3 -16 8 -50 11 -75 12 -85 41
-217 62 -280 8 -25 16 -52 18 -60 2 -8 4 -15 5 -15 1 0 3 -9 5 -21 7 -36 93
-243 140 -336 136 -268 353 -543 576 -730 111 -94 142 -117 266 -198 105 -70
431 -248 440 -242 2 1 22 -7 45 -17 62 -26 268 -100 301 -107 4 -1 8 -2 10 -4
1 -1 9 -3 17 -5 8 -3 67 -18 130 -35 63 -17 126 -33 140 -35 14 -3 59 -12 100
-20 41 -8 91 -18 110 -21 19 -3 46 -7 60 -10 14 -3 43 -7 65 -9 22 -3 63 -7
90 -11 256 -33 771 -38 1020 -10 17 2 64 7 105 11 121 12 135 14 135 15 0 1
14 3 30 5 17 2 50 7 75 10 25 3 70 10 100 15 30 5 71 12 90 15 30 5 193 38
255 52 11 2 31 6 45 9 39 7 259 64 320 82 30 8 60 17 66 18 5 1 64 19 130 40
65 21 121 38 124 39 3 0 37 12 75 25 39 13 75 25 80 26 13 3 280 107 320 124
17 7 32 14 35 15 45 15 292 126 300 134 3 4 12 7 20 9 16 4 273 132 380 190
175 95 378 215 510 301 30 20 59 38 65 41 21 10 131 86 149 102 11 10 28 20
38 24 10 3 18 10 18 15 0 5 7 9 15 9 8 0 15 5 15 10 0 6 6 10 14 10 8 0 16 3
18 8 2 4 39 34 83 66 89 66 341 263 366 286 15 14 102 89 153 133 146 125 434
412 591 592 33 37 65 73 70 79 35 38 155 188 228 286 48 63 92 120 97 127 6 7
10 16 10 22 0 5 4 11 8 13 11 4 133 185 131 194 0 4 4 10 9 13 12 8 92 139 92
151 0 6 5 10 10 10 6 0 10 5 10 10 0 6 10 27 23 48 13 20 46 80 73 132 27 52
53 98 57 101 5 3 8 8 7 10 -1 2 22 54 50 114 29 61 53 115 54 120 2 6 13 33
25 60 30 66 122 319 137 375 2 8 17 65 34 125 17 61 33 124 36 140 2 17 9 46
14 65 5 20 12 51 14 70 3 19 7 46 10 60 49 267 54 678 12 920 -2 14 -7 43 -11
65 -3 22 -10 56 -15 75 -5 19 -11 46 -14 60 -17 86 -70 250 -113 349 -12 29
-23 60 -23 67 0 8 -3 14 -7 14 -5 0 -17 21 -27 48 -31 75 -187 337 -215 362
-4 3 -26 32 -51 65 -90 121 -263 297 -405 410 -72 58 -241 171 -330 222 -132
76 -426 213 -455 213 -6 0 -24 6 -38 14 -15 8 -74 28 -132 46 -58 17 -112 34
-120 37 -8 3 -22 7 -30 8 -8 1 -62 14 -120 28 -58 14 -132 31 -165 37 -33 6
-71 14 -85 16 -14 3 -38 7 -55 9 -108 13 -134 16 -165 21 -53 8 -115 14 -199
20 -84 6 -558 13 -563 9z m532 -409 c30 -3 84 -8 120 -11 36 -2 76 -6 90 -9
27 -5 109 -16 150 -21 14 -2 25 -4 25 -5 0 -1 9 -3 20 -4 11 -2 36 -7 55 -11
19 -5 46 -9 60 -11 14 -1 79 -16 145 -34 66 -17 125 -32 130 -34 20 -4 181
-59 210 -71 228 -93 356 -159 510 -260 61 -40 120 -81 132 -91 12 -10 44 -37
72 -59 46 -36 234 -224 271 -271 33 -42 60 -83 60 -91 0 -4 -21 -20 -47 -34
-110 -60 -319 -183 -334 -196 -15 -12 -23 -6 -75 53 -208 237 -437 395 -768
526 -55 22 -108 40 -118 41 -10 1 -18 6 -18 11 0 5 -3 6 -6 3 -4 -3 -14 -2
-24 3 -9 5 -28 11 -41 13 -13 3 -44 10 -69 17 -25 7 -53 14 -63 16 -10 2 -26
5 -35 8 -9 3 -29 7 -45 10 -184 32 -176 31 -381 53 -128 13 -634 5 -766 -12
-19 -2 -57 -7 -85 -10 -103 -12 -209 -27 -300 -45 -27 -5 -63 -12 -80 -15 -16
-2 -45 -9 -63 -14 -18 -5 -35 -10 -37 -10 -3 0 -20 -3 -38 -6 -17 -3 -41 -8
-52 -10 -11 -2 -21 -4 -22 -5 -3 -3 -2 -2 -58 -15 -47 -10 -54 -12 -57 -15 -2
-1 -10 -3 -18 -5 -40 -8 -250 -67 -282 -80 -21 -8 -38 -12 -38 -10 0 3 -9 1
-21 -5 -11 -6 -28 -13 -37 -15 -9 -2 -62 -20 -117 -40 -55 -21 -106 -37 -112
-38 -7 0 -13 -3 -13 -7 0 -4 -6 -7 -12 -7 -13 -1 -191 -70 -265 -104 -24 -10
-45 -19 -47 -19 -3 0 -34 -13 -69 -30 -36 -16 -70 -30 -76 -30 -6 0 -11 -4
-11 -10 0 -5 -6 -10 -12 -10 -17 0 -358 -168 -380 -187 -15 -13 -19 -11 -41
24 -39 63 -107 181 -107 187 0 3 -12 22 -26 43 -14 21 -30 47 -35 58 -5 11
-18 34 -28 50 -11 17 -20 35 -20 42 -1 10 339 184 492 252 26 11 66 30 90 40
58 27 350 143 362 145 6 1 15 5 21 8 6 4 21 10 35 13 13 3 104 32 201 65 98
33 190 62 205 65 45 10 48 10 58 17 6 3 71 20 145 37 74 17 151 36 170 42 19
6 49 12 65 14 17 2 31 4 33 6 3 2 11 4 67 14 28 4 55 9 60 11 6 1 28 5 50 9
39 6 53 8 125 22 19 3 51 7 70 8 19 2 35 4 35 5 0 3 91 12 132 14 18 0 33 3
33 6 0 3 17 5 38 6 60 2 267 16 270 19 5 5 489 -3 542 -9z m28 -860 c23 -3 61
-8 85 -11 23 -3 56 -7 72 -10 17 -2 44 -7 60 -9 17 -3 55 -10 85 -16 30 -6 65
-12 77 -14 11 -2 36 -9 55 -15 106 -34 165 -52 180 -56 97 -23 389 -185 487
-269 47 -41 161 -157 161 -165 0 -4 -15 -15 -32 -24 -48 -24 -132 -71 -138
-77 -10 -10 -153 -90 -161 -90 -5 0 -9 -5 -9 -11 0 -5 -4 -8 -9 -4 -5 3 -12 1
-15 -4 -3 -5 -32 -24 -64 -42 -31 -17 -70 -40 -87 -49 -31 -18 -193 -111 -414
-239 -68 -39 -127 -71 -131 -71 -5 0 -10 -4 -12 -8 -1 -4 -34 -25 -73 -47 -64
-35 -269 -152 -305 -175 -8 -5 -49 -28 -90 -52 -41 -23 -83 -47 -92 -53 -21
-13 -57 -33 -133 -75 -33 -18 -64 -36 -70 -40 -5 -5 -136 -80 -290 -169 -154
-89 -287 -166 -295 -171 -8 -6 -27 -16 -42 -23 -16 -6 -28 -15 -28 -19 0 -4
-4 -8 -9 -8 -6 0 -36 -16 -68 -35 -32 -19 -61 -35 -65 -35 -4 0 -20 12 -35 28
-16 15 -46 41 -68 57 -22 16 -42 32 -45 36 -7 9 -177 90 -198 94 -9 2 -18 4
-19 5 -3 3 -5 3 -43 13 -60 16 -91 20 -195 23 -64 1 -133 -2 -165 -10 -30 -6
-62 -11 -70 -11 -36 4 -40 6 -40 15 0 6 -25 54 -56 108 -31 53 -67 116 -80
139 -28 49 -150 261 -163 283 -35 58 -158 272 -175 305 -12 22 -24 42 -27 45
-19 17 -139 244 -132 250 29 27 544 271 643 305 3 1 19 7 35 14 17 7 46 19 65
26 19 8 60 23 90 35 70 27 378 130 405 135 11 2 20 4 20 5 0 1 7 3 15 5 8 2
84 22 169 44 85 22 158 38 163 35 4 -3 8 0 8 6 0 6 4 9 9 6 4 -3 23 -1 42 5
19 5 49 12 68 15 18 3 43 8 55 10 11 2 41 7 66 10 25 3 53 8 63 10 10 3 32 7
50 10 144 17 189 22 276 29 36 3 66 7 68 9 6 6 526 -1 571 -8z m-3646 -203
c22 -41 143 -250 188 -325 21 -36 21 -38 3 -45 -10 -4 -22 -11 -28 -15 -5 -5
-87 -59 -181 -122 -170 -112 -357 -247 -465 -335 -31 -25 -76 -62 -100 -81
-214 -170 -601 -548 -756 -736 -17 -22 -40 -48 -50 -59 -10 -11 -36 -43 -58
-70 -22 -28 -43 -51 -47 -53 -5 -2 -8 -10 -8 -17 0 -8 -6 -18 -13 -22 -7 -4
-30 -33 -52 -63 -22 -30 -42 -57 -45 -60 -14 -13 -130 -191 -130 -199 0 -5 -4
-11 -8 -13 -15 -6 -141 -224 -211 -365 -61 -122 -79 -162 -111 -238 -31 -71
-97 -263 -104 -298 -2 -7 -9 -32 -16 -57 -7 -25 -14 -50 -16 -56 -1 -7 -9 -43
-18 -82 -9 -39 -18 -86 -21 -106 -3 -20 -7 -52 -10 -72 -12 -86 -17 -157 -17
-274 -1 -153 10 -257 42 -405 13 -60 7 -39 55 -195 1 -3 7 -18 13 -33 7 -16
12 -32 12 -37 0 -7 -324 -200 -337 -200 -3 0 -16 -9 -30 -20 -14 -11 -30 -20
-35 -20 -8 0 -51 89 -63 130 0 3 -13 43 -27 90 -34 113 -57 210 -72 310 -27
175 -28 480 -1 675 2 17 6 46 9 65 3 28 30 157 51 250 35 159 112 390 183 550
11 25 30 70 43 100 60 142 278 540 300 548 5 2 9 12 9 23 0 10 5 19 10 19 6 0
14 8 17 17 10 24 115 177 125 181 4 2 8 8 8 14 0 5 6 15 12 22 7 8 20 24 28
36 21 31 82 113 95 126 5 6 24 29 40 50 33 42 123 153 140 170 5 7 39 45 75
85 84 95 402 414 504 504 43 39 84 75 90 80 11 11 149 123 222 182 21 17 75
59 119 92 44 33 85 64 90 69 6 4 33 23 60 42 28 19 52 38 55 41 6 6 307 205
360 237 39 24 40 23 72 -35z m5895 -310 c8 -21 19 -47 23 -58 13 -33 23 -60
25 -65 1 -3 11 -36 23 -75 30 -98 50 -189 67 -305 24 -164 25 -533 1 -660 -2
-14 -10 -59 -16 -100 -7 -41 -19 -104 -27 -140 -8 -36 -16 -72 -18 -80 -9 -44
-40 -154 -62 -220 -13 -41 -26 -82 -28 -90 -6 -27 -95 -250 -131 -328 -19 -42
-44 -97 -56 -124 -11 -26 -24 -48 -28 -48 -4 0 -11 -12 -15 -27 -7 -31 -174
-326 -187 -331 -4 -2 -8 -8 -8 -14 0 -19 -317 -471 -349 -498 -3 -3 -31 -36
-62 -75 -61 -76 -70 -86 -162 -190 -67 -76 -368 -379 -457 -460 -58 -53 -220
-192 -305 -262 -27 -22 -120 -93 -205 -157 -85 -64 -160 -120 -167 -126 -7 -5
-16 -10 -22 -10 -5 0 -11 -4 -13 -8 -3 -8 -298 -206 -342 -229 -26 -14 -28
-12 -94 106 -14 25 -36 63 -49 83 -12 21 -23 40 -23 43 0 3 -10 22 -23 43 -13
20 -35 58 -50 84 l-27 46 38 23 c20 13 42 26 47 29 14 7 138 88 150 97 6 5 39
28 75 52 86 58 122 84 136 96 6 6 22 17 34 25 12 8 37 26 55 40 18 14 45 34
60 44 14 11 35 27 45 35 40 34 57 47 95 76 21 17 47 37 56 45 8 8 37 33 64 55
26 22 53 45 59 50 6 6 47 42 91 80 100 87 380 367 460 459 33 37 69 78 80 91
22 24 38 44 101 120 257 315 494 702 627 1025 37 88 103 276 112 313 2 12 18
76 35 142 17 66 32 135 33 152 1 18 4 33 7 33 3 0 6 15 6 33 1 17 5 75 9 127
15 179 7 378 -21 500 -3 14 -8 39 -10 55 -3 17 -10 43 -16 58 -6 15 -12 36
-13 45 -1 9 -4 24 -7 32 -14 37 -48 138 -48 143 0 6 138 87 150 87 5 0 10 4
12 8 3 8 62 43 153 91 17 9 41 24 55 34 34 24 38 22 57 -20z m-5479 -415 c5
-7 20 -31 32 -52 16 -30 126 -222 210 -366 5 -8 63 -108 129 -223 67 -114 121
-212 121 -217 0 -6 5 -10 10 -10 6 0 10 -6 10 -14 0 -7 7 -19 15 -26 9 -7 14
-15 11 -17 -2 -2 11 -28 30 -56 19 -28 34 -57 34 -63 0 -7 3 -14 8 -16 7 -3
42 -62 42 -71 0 -2 -18 -24 -41 -48 -37 -41 -96 -123 -112 -159 -4 -8 -11 -22
-16 -30 -27 -46 -58 -135 -76 -219 -13 -64 -18 -278 -6 -296 4 -5 8 -23 10
-40 2 -16 7 -35 12 -41 6 -8 -2 -20 -25 -38 -19 -14 -37 -26 -39 -26 -3 0 -66
-36 -141 -80 -76 -44 -141 -80 -146 -80 -6 0 -10 -5 -10 -11 0 -5 -4 -8 -9 -4
-6 3 -13 0 -18 -7 -4 -7 -32 -24 -60 -38 -29 -14 -53 -28 -53 -32 0 -5 -4 -8
-9 -8 -5 0 -38 -17 -72 -38 -55 -33 -115 -67 -204 -116 -11 -6 -22 -14 -25
-17 -3 -3 -20 -12 -37 -20 -18 -8 -33 -17 -33 -21 0 -5 -4 -8 -9 -8 -8 0 -109
-57 -161 -90 -8 -6 -24 -14 -35 -20 -11 -5 -42 -23 -70 -39 -27 -17 -71 -42
-97 -56 -26 -13 -49 -29 -53 -35 -4 -6 -10 -8 -15 -5 -4 3 -13 -2 -20 -10 -7
-8 -16 -15 -20 -15 -4 0 -65 -34 -135 -75 -69 -41 -130 -75 -135 -75 -5 0 -10
-3 -12 -7 -1 -5 -21 -17 -43 -28 -22 -11 -42 -22 -45 -26 -3 -3 -32 -21 -65
-39 -33 -19 -204 -117 -380 -218 -176 -102 -336 -194 -355 -204 -19 -11 -50
-29 -68 -40 -18 -11 -35 -19 -36 -17 -7 7 -47 144 -52 178 -3 18 -8 43 -10 55
-27 116 -21 379 11 541 9 44 18 91 21 105 12 61 77 266 107 340 6 14 11 27 12
30 35 94 117 260 202 409 37 64 69 118 73 121 4 3 9 12 12 20 18 47 313 440
403 537 11 11 49 54 85 93 120 134 330 339 465 455 38 33 75 65 81 70 6 6 28
24 49 40 21 17 43 35 49 40 6 6 67 53 136 105 69 52 128 100 132 105 4 6 8 7
8 3 0 -5 8 -1 18 8 31 29 170 124 180 124 6 0 12 3 14 8 2 4 37 29 78 56 41
27 84 54 95 62 25 17 30 17 43 2z m4702 7 c0 -3 11 -42 24 -87 13 -46 27 -105
30 -133 4 -27 10 -66 13 -85 11 -73 5 -316 -11 -395 -2 -11 -7 -40 -10 -65
-15 -109 -82 -337 -143 -485 -70 -168 -204 -423 -299 -567 -19 -29 -40 -61
-47 -72 -17 -25 -188 -258 -201 -273 -6 -7 -15 -18 -21 -25 -18 -23 -100 -123
-110 -134 -243 -268 -393 -416 -619 -608 -27 -22 -54 -46 -60 -51 -52 -48
-299 -235 -401 -306 -27 -19 -52 -36 -55 -39 -3 -3 -69 -47 -148 -99 -138 -90
-144 -93 -162 -76 -11 10 -20 22 -20 26 0 5 -14 32 -31 61 -18 29 -43 73 -57
98 -14 25 -33 59 -43 75 -10 17 -40 68 -66 115 -27 47 -75 129 -106 182 -31
54 -57 102 -57 107 0 5 -4 11 -8 13 -6 2 -73 115 -193 329 -9 16 -22 36 -29
44 -7 8 -9 15 -5 15 3 0 -3 12 -14 26 -12 15 -21 30 -21 35 0 4 16 25 36 46
84 88 150 207 190 340 21 69 27 114 29 208 3 107 -11 224 -29 253 -5 8 82 63
206 131 16 9 37 21 46 26 35 21 414 241 450 261 20 11 129 74 242 139 113 65
218 126 235 134 16 9 32 18 35 21 3 3 95 57 205 120 110 63 252 145 315 182
63 37 142 82 174 100 32 18 66 38 75 43 9 6 63 37 121 70 57 33 112 65 122 70
9 6 47 28 85 49 37 21 101 59 140 82 40 24 77 44 82 44 5 0 14 7 21 15 7 8 16
12 21 9 5 -3 9 -1 9 4 0 5 10 14 23 20 25 12 37 14 37 7z m-4044 -2372 c66
-66 248 -176 312 -188 9 -2 18 -4 20 -5 2 -3 4 -3 42 -13 60 -16 91 -20 195
-23 64 -1 133 2 165 10 30 6 62 11 70 11 36 -4 40 -6 40 -16 0 -5 25 -54 56
-107 31 -53 67 -116 80 -139 13 -23 53 -92 89 -153 36 -61 65 -113 65 -116 0
-3 8 -17 19 -32 32 -46 180 -307 180 -316 -1 -5 3 -12 8 -15 19 -13 144 -244
136 -251 -9 -9 -250 -130 -376 -189 -107 -50 -292 -128 -407 -171 -47 -17 -94
-35 -105 -40 -38 -15 -112 -41 -131 -44 -11 -3 -32 -10 -49 -16 -16 -6 -37
-14 -45 -16 -8 -2 -53 -15 -100 -30 -109 -34 -333 -92 -385 -100 -21 -3 -48
-11 -60 -16 -11 -6 -22 -10 -25 -9 -4 2 -77 -8 -100 -14 -3 0 -27 -4 -53 -9
-27 -4 -58 -9 -70 -12 -11 -2 -41 -6 -66 -9 -25 -3 -56 -7 -68 -9 -12 -3 -53
-7 -90 -11 -97 -8 -157 -16 -167 -23 -5 -3 -6 0 -2 6 5 9 1 9 -17 3 -24 -9
-508 -7 -562 3 -16 2 -54 7 -84 11 -30 3 -64 8 -75 10 -12 2 -39 6 -61 9 -22
3 -47 7 -55 10 -8 3 -31 8 -50 11 -59 9 -74 13 -102 24 -16 6 -28 9 -28 6 0
-2 -33 8 -72 21 -40 14 -78 27 -85 28 -7 1 -16 5 -19 9 -4 4 -13 7 -21 7 -14
0 -113 44 -198 87 -67 35 -214 133 -261 175 -60 53 -154 148 -154 156 0 4 17
16 38 28 20 11 188 107 372 214 184 106 345 198 357 204 13 6 23 15 23 19 0 5
5 5 10 2 6 -3 10 -1 10 4 0 6 4 11 9 11 7 0 88 45 189 105 9 6 53 31 97 56 44
25 172 99 284 163 112 65 218 126 235 136 17 10 85 49 151 87 66 38 197 114
290 168 94 54 175 101 180 105 6 4 37 22 70 40 33 18 74 42 90 52 17 10 42 24
58 30 15 7 27 16 27 20 0 4 4 8 9 8 6 0 36 16 68 35 32 19 61 35 65 35 4 0 19
-12 34 -27z m1716 -1743 c14 -25 55 -96 92 -159 36 -62 66 -115 66 -118 0 -2
11 -21 25 -41 28 -41 32 -62 11 -62 -8 0 -16 -4 -18 -9 -3 -7 -353 -182 -448
-224 -19 -8 -56 -24 -82 -36 -45 -20 -97 -42 -108 -46 -3 -1 -14 -5 -25 -10
-100 -42 -166 -68 -200 -79 -22 -8 -84 -30 -137 -49 -53 -19 -99 -33 -102 -29
-3 3 -6 1 -6 -5 0 -6 -12 -13 -27 -16 -16 -2 -86 -23 -158 -45 -137 -43 -416
-117 -475 -126 -19 -3 -50 -10 -67 -15 -18 -5 -33 -8 -33 -6 0 3 -10 1 -23 -4
-12 -5 -42 -11 -67 -15 -25 -3 -54 -8 -65 -10 -11 -2 -40 -7 -65 -11 -25 -4
-52 -9 -60 -10 -77 -14 -136 -21 -235 -31 -27 -2 -66 -6 -85 -8 -163 -20 -588
-27 -785 -12 -180 13 -199 15 -225 20 -26 5 -108 16 -150 21 -14 2 -25 4 -25
5 0 1 -9 3 -20 4 -11 2 -36 7 -55 11 -19 5 -46 9 -60 11 -14 1 -79 16 -145 34
-66 17 -127 33 -135 35 -28 7 -217 73 -251 87 -19 8 -59 26 -89 39 -252 108
-499 272 -694 459 -89 86 -216 236 -216 255 0 9 150 100 289 175 26 14 58 33
71 43 35 25 52 21 83 -21 94 -123 315 -311 462 -393 137 -76 377 -182 439
-193 14 -2 30 -7 36 -11 17 -10 229 -63 320 -79 118 -21 136 -23 324 -43 134
-14 620 -6 756 12 19 3 62 8 95 11 33 3 69 8 80 10 11 2 43 6 70 10 28 3 68 9
90 14 22 5 63 12 90 16 28 3 53 8 56 10 3 2 21 6 40 9 19 3 54 11 79 16 25 6
56 13 70 15 14 3 33 7 42 10 9 3 25 7 35 9 10 2 54 14 98 26 44 11 87 23 95
24 8 2 16 4 18 5 1 2 5 3 10 4 85 23 415 132 445 147 10 6 26 12 35 14 60 13
531 216 630 271 23 13 49 24 57 24 7 0 15 3 17 8 3 6 181 103 184 99 1 -1 13
-22 26 -47z"/>
</g>
</svg>
