<svg viewBox="0 0 1280 1280" xmlns="http://www.w3.org/2000/svg" fill-rule="evenodd" clip-rule="evenodd" stroke-linejoin="round" stroke-miterlimit="2">
  <path d="M1087.51 381.632c38.51 66.711 41.63 147.527 14.31 229.984-39.35 118.772-142.493 241.413-289.744 326.428-147.251 85.016-305.031 113.016-427.566 87.716-85.071-17.57-153.501-60.681-192.017-127.392-38.515-66.711-41.632-147.527-14.312-229.984 39.352-118.772 142.492-241.413 289.743-326.428 147.251-85.016 305.031-113.017 427.566-87.711 85.071 17.569 153.5 60.676 192.02 127.387zM774.623 913.174l-24.206-41.926c-116.449 63.076-236.87 87.443-329.542 74.145-61.241-8.788-110.753-33.948-141.365-74.17l-41.485 23.951c34.384 47.519 89.007 77.866 154.575 91.407 109.732 22.659 249.474-1.486 382.023-73.407zM494.942 428.752l-24.206-41.926c-128.56 78.83-219.344 187.776-254.584 294.138-21.057 63.554-22.087 126.033 1.873 179.569l41.485-23.951c-19.527-46.622-16.561-102.08 6.45-159.511 34.819-86.905 116.132-179.009 228.982-248.319zm86.423 149.689l-66.417-115.038c-104.03 64.075-179.716 148.321-211.858 228.545-17.875 44.614-22.16 87.758-8.572 124.422l263.928-152.379c-8.977-30.451-.079-63.664 22.919-85.55zm82.629 143.118c-30.449 8.974-63.661.074-85.548-22.926L314.518 851.011c24.958 30.1 64.464 47.961 112.039 54.788 85.547 12.276 196.349-11.147 303.854-69.202l-66.417-115.038zm377.976-336.733c-34.38-47.519-89.002-77.866-154.57-91.407-109.732-22.662-249.474 1.486-382.023 73.407l24.206 41.926c116.449-63.076 236.87-87.443 329.542-74.145 61.241 8.788 110.753 33.948 141.365 74.17l41.48-23.951zm20 34.641l-41.48 23.951c19.53 46.622 16.56 102.08-6.45 159.511-34.819 86.905-116.132 179.009-228.982 248.319l24.206 41.926c128.56-78.83 219.346-187.776 254.586-294.138 21.05-63.554 22.08-126.033-1.88-179.569zm-360.416 161.9l263.928-152.378c-24.958-30.1-64.464-47.961-112.039-54.788-85.547-12.276-196.349 11.147-303.854 69.202l66.417 115.038c30.449-8.974 63.661-.074 85.548 22.926zm20 34.642c8.977 30.451.079 63.664-22.919 85.55l66.417 115.038c104.03-64.075 179.716-148.321 211.858-228.545 17.875-44.614 22.16-87.758 8.572-124.422L721.554 616.009z" fill="#fff"/>
</svg>